<svg width="153" height="65" viewBox="0 0 153 65" fill="none" xmlns="http://www.w3.org/2000/svg">
    <path
        d="M33.992 64.976C33.2667 64.976 32.6693 64.7413 32.2 64.272C31.7307 63.8453 31.496 63.248 31.496 62.48V43.664C30.088 45.6693 28.232 47.2907 25.928 48.528C23.624 49.7227 21.0427 50.32 18.184 50.32C14.8987 50.32 11.9547 49.552 9.352 48.016C6.74933 46.4373 4.68 44.304 3.144 41.616C1.65067 38.928 0.904 35.8987 0.904 32.528C0.904 29.1147 1.672 26.064 3.208 23.376C4.78667 20.688 6.92 18.576 9.608 17.04C12.296 15.4613 15.3253 14.672 18.696 14.672C22.024 14.672 25.0107 15.44 27.656 16.976C30.344 18.512 32.456 20.624 33.992 23.312C35.5707 25.9573 36.4027 28.944 36.488 32.272V62.48C36.488 63.248 36.2533 63.8453 35.784 64.272C35.3147 64.7413 34.7173 64.976 33.992 64.976ZM18.696 45.84C21.1707 45.84 23.368 45.264 25.288 44.112C27.2507 42.96 28.7867 41.3813 29.896 39.376C31.048 37.328 31.624 35.0453 31.624 32.528C31.624 29.968 31.048 27.6853 29.896 25.68C28.7867 23.6747 27.2507 22.096 25.288 20.944C23.368 19.7493 21.1707 19.152 18.696 19.152C16.264 19.152 14.0667 19.7493 12.104 20.944C10.1413 22.096 8.584 23.6747 7.432 25.68C6.28 27.6853 5.704 29.968 5.704 32.528C5.704 35.0453 6.28 37.328 7.432 39.376C8.584 41.3813 10.1413 42.96 12.104 44.112C14.0667 45.264 16.264 45.84 18.696 45.84ZM53.706 64.976C52.938 64.976 52.3193 64.7413 51.85 64.272C51.4233 63.8453 51.21 63.248 51.21 62.48V32.272C51.2527 28.944 52.042 25.9573 53.578 23.312C55.1567 20.624 57.2687 18.512 59.914 16.976C62.602 15.44 65.61 14.672 68.938 14.672C72.3513 14.672 75.402 15.4613 78.09 17.04C80.778 18.576 82.89 20.688 84.426 23.376C86.0047 26.064 86.794 29.1147 86.794 32.528C86.794 35.8987 86.026 38.928 84.49 41.616C82.9967 44.304 80.9487 46.4373 78.346 48.016C75.7433 49.552 72.7993 50.32 69.514 50.32C66.6553 50.32 64.0527 49.7227 61.706 48.528C59.402 47.2907 57.546 45.6693 56.138 43.664V62.48C56.138 63.248 55.9033 63.8453 55.434 64.272C55.0073 64.7413 54.4313 64.976 53.706 64.976ZM68.938 45.84C71.4127 45.84 73.6313 45.264 75.594 44.112C77.5567 42.96 79.0927 41.3813 80.202 39.376C81.354 37.328 81.93 35.0453 81.93 32.528C81.93 29.968 81.354 27.6853 80.202 25.68C79.0927 23.6747 77.5567 22.096 75.594 20.944C73.6313 19.7493 71.4127 19.152 68.938 19.152C66.506 19.152 64.3087 19.7493 62.346 20.944C60.3833 22.096 58.8473 23.6747 57.738 25.68C56.6287 27.6853 56.074 29.968 56.074 32.528C56.074 35.0453 56.6287 37.328 57.738 39.376C58.8473 41.3813 60.3833 42.96 62.346 44.112C64.3087 45.264 66.506 45.84 68.938 45.84ZM115.596 50.32C112.225 50.32 109.196 49.552 106.508 48.016C103.82 46.4373 101.687 44.304 100.108 41.616C98.572 38.928 97.804 35.8773 97.804 32.464C97.804 29.0933 98.5507 26.064 100.044 23.376C101.58 20.688 103.649 18.576 106.252 17.04C108.855 15.4613 111.799 14.672 115.084 14.672C117.943 14.672 120.524 15.2907 122.828 16.528C125.132 17.7227 126.988 19.3227 128.396 21.328V2.512C128.396 1.744 128.631 1.14666 129.1 0.719997C129.569 0.250665 130.167 0.0159988 130.892 0.0159988C131.617 0.0159988 132.215 0.250665 132.684 0.719997C133.153 1.14666 133.388 1.744 133.388 2.512V32.72C133.303 36.048 132.471 39.056 130.892 41.744C129.356 44.3893 127.244 46.48 124.556 48.016C121.911 49.552 118.924 50.32 115.596 50.32ZM115.596 45.84C118.071 45.84 120.268 45.264 122.188 44.112C124.151 42.9173 125.687 41.3173 126.796 39.312C127.948 37.3067 128.524 35.024 128.524 32.464C128.524 29.9467 127.948 27.6853 126.796 25.68C125.687 23.632 124.151 22.032 122.188 20.88C120.268 19.728 118.071 19.152 115.596 19.152C113.164 19.152 110.967 19.728 109.004 20.88C107.041 22.032 105.484 23.632 104.332 25.68C103.18 27.6853 102.604 29.9467 102.604 32.464C102.604 35.024 103.18 37.3067 104.332 39.312C105.484 41.3173 107.041 42.9173 109.004 44.112C110.967 45.264 113.164 45.84 115.596 45.84ZM149.262 51.024C148.238 51.024 147.363 50.6613 146.638 49.936C145.913 49.2107 145.55 48.336 145.55 47.312C145.55 46.2453 145.913 45.3493 146.638 44.624C147.406 43.8987 148.281 43.536 149.262 43.536C150.286 43.536 151.161 43.92 151.886 44.688C152.611 45.4133 152.974 46.288 152.974 47.312C152.974 48.2933 152.611 49.168 151.886 49.936C151.203 50.6613 150.329 51.024 149.262 51.024Z"
        fill="white" />
</svg>